<?xml version="1.0" encoding="utf-8"?>
<!-- Generator: Adobe Illustrator 16.0.0, SVG Export Plug-In . SVG Version: 6.00 Build 0)  -->
<!DOCTYPE svg PUBLIC "-//W3C//DTD SVG 1.1//EN" "http://www.w3.org/Graphics/SVG/1.1/DTD/svg11.dtd">
<svg version="1.1" id="Layer_1" xmlns="http://www.w3.org/2000/svg" xmlns:xlink="http://www.w3.org/1999/xlink" x="0px" y="0px"
	 width="1000px" height="1000px" viewBox="0 0 1000 1000" enable-background="new 0 0 1000 1000" xml:space="preserve">
<g>
	<g>
		<path fill="#414042" d="M823.335,648.682c-10.237-17.487-32.266-23.664-50.103-14.436l-51.691-58.282
			c8.186-23.804,12.663-49.337,12.663-75.98c0-26.093-4.335-51.211-12.247-74.664l43.784-51.833
			c10.618,4.441,22.967,4.094,33.583-2.151c18.045-10.479,24.15-33.725,13.602-51.767c-10.583-18.04-33.793-24.215-51.871-13.599
			c-10.614,6.175-16.961,16.862-18.353,28.241l-65.64,12.559c-33.932-39.135-80.563-66.89-133.576-76.882l-24.91-72.374
			c16.479-11.034,21.893-33.168,11.729-50.585c-10.583-17.973-33.794-24.147-51.834-13.532
			c-18.043,10.478-24.184,33.793-13.6,51.834c2.74,4.72,6.383,8.604,10.581,11.519l-24.979,74.386
			c-51.384,11.033-96.417,38.927-129.169,77.577l-73.483-13.739c-0.348-5.691-1.874-11.379-4.927-16.654
			c-10.546-18.041-33.791-24.147-51.833-13.599c-18.042,10.547-24.148,33.794-13.601,51.833
			c9.646,16.515,29.908,22.896,47.046,15.75l51.557,59.05c-6.662,21.719-10.235,44.756-10.235,68.629
			c0,26.713,4.474,52.321,12.733,76.187l-52.945,61.965c-10.929-5.206-24.148-5.065-35.319,1.455
			c-18.11,10.62-24.148,33.793-13.6,51.904c10.547,17.972,33.791,24.148,51.833,13.602c11.206-6.594,17.764-18.039,18.666-30.114
			l81.011-15.893c32.094,34.628,74.49,59.536,122.368,69.876l26.438,75.149c-14.78,11.52-19.291,32.336-9.576,48.92
			c10.546,18.042,33.792,24.146,51.868,13.601c18.007-10.547,24.113-33.795,13.567-51.904c-2.741-4.58-6.314-8.465-10.411-11.447
			l25.225-73.971c48.884-10.131,92.218-35.459,124.797-70.917l80.873,15.613c0.729,4.441,2.081,8.813,4.547,12.905
			c10.51,18.043,33.718,24.148,51.832,13.602C827.775,689.969,833.846,666.654,823.335,648.682z M499.98,672.205
			c-95.132,0-172.223-77.091-172.223-172.221c0-95.135,77.091-172.225,172.223-172.225c95.098,0,172.225,77.09,172.225,172.225
			C672.205,595.114,595.078,672.205,499.98,672.205z"/>
		<path fill="#414042" d="M467.786,513.305c-1.911-6.456-2.638-12.004-2.291-16.69c0.38-5.238,2.082-10.718,5.03-16.2
			c3.019-5.482,6.453-9.924,10.305-13.253l96.312-82.573c-29.352-19.569-66.057-28.105-103.46-20.956
			c-75.321,14.57-124.554,87.359-110.05,162.645c0,0,0.969,6.66,4.372,16.799c0.206,0.619,0.415,1.245,0.659,1.871
			c0.38,1.107,0.796,2.284,1.213,3.469c1.527,3.889,3.054,7.702,4.788,11.451l0.139-0.075c9.784,20.401,27.756,45.799,60.125,62.87
			c0.521,0.207,1.042,0.483,1.563,0.763c1.597,0.833,3.191,1.593,4.788,2.356c1.109,0.485,2.22,0.976,3.261,1.459
			c0.486,0.207,0.972,0.416,1.457,0.692v-0.068c24.529,10.408,52.25,13.843,80.319,8.468c13.354-2.57,25.915-7.078,37.503-12.979
			l-83.961-90.416C473.682,526.492,469.623,519.831,467.786,513.305z"/>
	</g>
	<path fill="#27AAE1" d="M611.524,417.27l-81.705,67.241c-3.018,2.426-5.831,4.786-8.467,7.353c-2.082,1.944-3.227,4.647-3.468,8.12
		c-0.278,4.649,0.692,8.5,3.19,11.726c2.879,3.674,5.9,7.218,8.952,10.48l71.055,72.992c29.42-31.364,43.992-75.978,35.249-121.429
		C632.272,452.588,623.599,433.436,611.524,417.27z"/>
	<g>
		<linearGradient id="SVGID_1_" gradientUnits="userSpaceOnUse" x1="551.4448" y1="678.8354" x2="396.0112" y2="256.9451">
			<stop  offset="0" style="stop-color:#FFFFFF"/>
			<stop  offset="0.1371" style="stop-color:#FFFFFF;stop-opacity:0.8629"/>
			<stop  offset="1" style="stop-color:#FFFFFF;stop-opacity:0"/>
		</linearGradient>
		<path fill="url(#SVGID_1_)" d="M479.58,533.008c-6.176-6.517-10.233-13.108-12.073-19.703c-1.909-6.387-2.635-11.934-2.29-16.653
			c0.381-5.205,2.082-10.754,5.031-16.167c3.02-5.551,6.453-9.994,10.305-13.256l96.312-82.571
			c-29.352-19.568-66.059-28.174-103.46-20.955c-75.321,14.5-124.552,87.361-110.051,162.65c0,0,0.972,6.655,4.372,16.791
			c0.209,0.552,0.417,1.247,0.659,1.873c0.383,1.107,0.798,2.292,1.215,3.399c1.526,3.958,3.054,7.77,4.789,11.521l0.138-0.145
			c1.318,2.779,3.192,5.76,4.857,8.678c39.621-4.301,77.786-11.244,113.73-20.887L479.58,533.008z"/>
		<linearGradient id="SVGID_2_" gradientUnits="userSpaceOnUse" x1="607.3999" y1="658.1831" x2="451.9693" y2="236.301">
			<stop  offset="0" style="stop-color:#FFFFFF"/>
			<stop  offset="0.1371" style="stop-color:#FFFFFF;stop-opacity:0.8629"/>
			<stop  offset="1" style="stop-color:#FFFFFF;stop-opacity:0"/>
		</linearGradient>
		<path fill="url(#SVGID_2_)" d="M722.096,426.915c-0.209-0.483-0.243-1.042-0.417-1.595l43.784-51.767
			c0.383,0.143,0.833,0.21,1.214,0.349c14.157-21.578,24.323-44.409,30.637-68.07c-11.207-5.898-24.804-6.731-36.531,0.138
			c-10.618,6.244-16.971,16.93-18.356,28.309l-65.642,12.56c-33.93-39.204-80.56-66.958-133.573-76.951L518.3,197.583
			c16.479-11.032,21.891-33.167,11.727-50.585c-10.583-18.042-33.829-24.147-51.835-13.601c-18.04,10.549-24.18,33.793-13.6,51.834
			c2.741,4.72,6.385,8.604,10.583,11.589l-24.981,74.315c-51.381,11.033-96.416,38.927-129.167,77.646l-73.483-13.74
			c-0.347-5.688-1.873-11.379-4.927-16.723c-10.547-18.041-33.793-24.078-51.833-13.53c-18.042,10.546-24.147,33.793-13.601,51.765
			c9.646,16.515,29.907,22.968,47.046,15.819l51.558,58.98c-6.662,21.719-10.201,44.756-10.201,68.698
			c0,25.605,4.301,50.167,11.934,73.207c4.094,0.068,8.085,0.413,12.213,0.413c18.214,0,36.151-0.627,53.916-1.804
			c-10.13-21.925-16.168-46.073-16.168-71.816c0-95.135,77.091-172.294,172.225-172.294c84.655,0,154.705,61.27,169.169,141.763
			C688.406,456.267,706.276,442.111,722.096,426.915z"/>
		<linearGradient id="SVGID_3_" gradientUnits="userSpaceOnUse" x1="636.0786" y1="647.5483" x2="480.7279" y2="225.8832">
			<stop  offset="0" style="stop-color:#FFFFFF"/>
			<stop  offset="0.1371" style="stop-color:#FFFFFF;stop-opacity:0.8629"/>
			<stop  offset="1" style="stop-color:#FFFFFF;stop-opacity:0"/>
		</linearGradient>
		<path fill="url(#SVGID_3_)" d="M611.245,417.34l-81.702,67.239c-3.021,2.357-5.829,4.788-8.468,7.285
			c-2.081,2.014-3.226,4.647-3.469,8.189c-0.278,4.65,0.694,8.463,3.191,11.656c2.881,3.751,5.898,7.288,8.951,10.48l10.547,10.818
			c35.459-12.277,68.071-27.267,97.701-44.267c-0.418-4.926-0.973-9.923-1.942-14.988
			C631.995,452.588,623.32,433.509,611.245,417.34z"/>
	</g>
</g>
</svg>
