<?xml version="1.0" encoding="UTF-8" standalone="no"?>
<!-- Generator: Adobe Illustrator 16.0.0, SVG Export Plug-In . SVG Version: 6.00 Build 0)  -->

<svg
   xmlns:dc="http://purl.org/dc/elements/1.1/"
   xmlns:cc="http://creativecommons.org/ns#"
   xmlns:rdf="http://www.w3.org/1999/02/22-rdf-syntax-ns#"
   xmlns:svg="http://www.w3.org/2000/svg"
   xmlns="http://www.w3.org/2000/svg"
   xmlns:sodipodi="http://sodipodi.sourceforge.net/DTD/sodipodi-0.dtd"
   xmlns:inkscape="http://www.inkscape.org/namespaces/inkscape"
   version="1.1"
   id="Layer_1"
   x="0px"
   y="0px"
   width="531.53076"
   height="241.97258"
   viewBox="0 0 531.53076 241.97258"
   enable-background="new 0 0 1000 1000"
   xml:space="preserve"
   sodipodi:docname="logo.svg"
   inkscape:version="0.92.2 (5c3e80d, 2017-08-06)"><metadata
     id="metadata64"><rdf:RDF><cc:Work
         rdf:about=""><dc:format>image/svg+xml</dc:format><dc:type
           rdf:resource="http://purl.org/dc/dcmitype/StillImage" /><dc:title></dc:title></cc:Work></rdf:RDF></metadata><defs
     id="defs62" /><sodipodi:namedview
     pagecolor="#ffffff"
     bordercolor="#666666"
     borderopacity="1"
     objecttolerance="10"
     gridtolerance="10"
     guidetolerance="10"
     inkscape:pageopacity="0"
     inkscape:pageshadow="2"
     inkscape:window-width="2560"
     inkscape:window-height="1377"
     id="namedview60"
     showgrid="false"
     inkscape:zoom="1.3350176"
     inkscape:cx="344.18901"
     inkscape:cy="95.968698"
     inkscape:window-x="-8"
     inkscape:window-y="-8"
     inkscape:window-maximized="1"
     inkscape:current-layer="Layer_1"
     fit-margin-top="5"
     fit-margin-left="5"
     fit-margin-right="5"
     fit-margin-bottom="5" /><rect
     stroke-miterlimit="10"
     width="531.17255"
     height="241.61433"
     id="rect2"
     x="0.17912209"
     y="0.17911001"
     style="fill:#ffffff;stroke:none;stroke-width:0.35824418;stroke-miterlimit:10" /><g
     id="g57"
     transform="translate(-233.39626,-379.01355)"><g
       id="g8"><path
         d="m 441.736,546.382 c -3.192,-5.455 -10.065,-7.382 -15.629,-4.503 l -16.126,-18.182 c 2.554,-7.426 3.95,-15.391 3.95,-23.703 0,-8.14 -1.353,-15.976 -3.82,-23.292 l 13.659,-16.17 c 3.312,1.386 7.164,1.277 10.477,-0.671 5.628,-3.269 7.533,-10.521 4.242,-16.148 -3.301,-5.628 -10.541,-7.554 -16.181,-4.242 -3.312,1.926 -5.292,5.26 -5.726,8.81 l -20.477,3.918 C 385.52,439.991 370.974,431.332 354.436,428.215 l -7.771,-22.577 c 5.141,-3.442 6.83,-10.347 3.658,-15.78 -3.301,-5.606 -10.542,-7.533 -16.169,-4.221 -5.628,3.269 -7.544,10.542 -4.243,16.17 0.855,1.472 1.991,2.684 3.301,3.593 l -7.792,23.205 c -16.029,3.442 -30.078,12.144 -40.295,24.201 l -22.923,-4.286 c -0.108,-1.775 -0.584,-3.55 -1.537,-5.195 -3.29,-5.628 -10.542,-7.533 -16.169,-4.242 -5.628,3.29 -7.533,10.542 -4.243,16.17 3.009,5.151 9.33,7.143 14.676,4.913 l 16.083,18.421 c -2.078,6.775 -3.193,13.962 -3.193,21.409 0,8.333 1.396,16.322 3.972,23.767 l -16.516,19.33 c -3.41,-1.624 -7.533,-1.58 -11.018,0.454 -5.65,3.313 -7.533,10.542 -4.243,16.191 3.29,5.606 10.542,7.533 16.17,4.243 3.496,-2.057 5.542,-5.628 5.823,-9.395 l 25.272,-4.957 c 10.012,10.802 23.237,18.572 38.173,21.798 l 8.248,23.443 c -4.611,3.593 -6.018,10.087 -2.987,15.261 3.29,5.628 10.542,7.532 16.181,4.242 5.617,-3.29 7.522,-10.542 4.232,-16.191 -0.855,-1.429 -1.97,-2.641 -3.247,-3.571 l 7.869,-23.075 c 15.25,-3.16 28.768,-11.062 38.931,-22.123 l 25.229,4.871 c 0.228,1.385 0.649,2.749 1.418,4.025 3.279,5.629 10.52,7.533 16.17,4.243 5.626,-3.29 7.52,-10.563 4.24,-16.17 z m -100.872,7.338 c -29.677,0 -53.726,-24.049 -53.726,-53.725 0,-29.678 24.049,-53.727 53.726,-53.727 29.667,0 53.727,24.049 53.727,53.727 0,29.676 -24.06,53.725 -53.727,53.725 z"
         id="path4"
         inkscape:connector-curvature="0"
         style="fill:#414042" /><path
         d="m 330.821,504.151 c -0.596,-2.014 -0.823,-3.745 -0.714,-5.207 0.119,-1.634 0.649,-3.344 1.569,-5.054 0.941,-1.71 2.013,-3.096 3.214,-4.135 l 30.045,-25.759 c -9.156,-6.104 -20.607,-8.768 -32.274,-6.537 -23.497,4.545 -38.855,27.252 -34.331,50.738 0,0 0.303,2.078 1.364,5.24 0.064,0.193 0.129,0.389 0.206,0.584 0.119,0.346 0.249,0.713 0.378,1.082 0.477,1.213 0.953,2.402 1.494,3.572 l 0.043,-0.023 c 3.052,6.364 8.659,14.287 18.756,19.612 0.163,0.064 0.325,0.151 0.487,0.238 0.498,0.26 0.996,0.497 1.494,0.735 0.346,0.151 0.692,0.304 1.017,0.455 0.152,0.064 0.303,0.13 0.455,0.216 v -0.021 c 7.652,3.247 16.3,4.318 25.056,2.642 4.167,-0.802 8.085,-2.208 11.7,-4.049 l -26.192,-28.205 c -1.927,-2.011 -3.194,-4.089 -3.767,-6.124 z"
         id="path6"
         inkscape:connector-curvature="0"
         style="fill:#414042" /></g><path
       d="m 375.661,474.192 -25.489,20.976 c -0.941,0.757 -1.818,1.493 -2.641,2.294 -0.649,0.606 -1.007,1.45 -1.083,2.533 -0.086,1.451 0.216,2.652 0.996,3.658 0.898,1.146 1.84,2.252 2.792,3.27 l 22.166,22.771 c 9.178,-9.784 13.724,-23.702 10.996,-37.88 -1.265,-6.604 -3.97,-12.579 -7.737,-17.622 z"
       id="path10"
       inkscape:connector-curvature="0"
       style="fill:#27aae1" /><g
       id="g26"><path
         d="m 491.956,500.276 20.737,-22.881 h 22.068 l -24.06,26.603 25.521,37.08 H 514.954 L 498.33,517.42 h -10.227 v 23.658 h -18.476 v -94.377 h 18.476 v 53.575 z"
         id="path18"
         inkscape:connector-curvature="0"
         style="fill:#414042" /><path
         d="m 599.667,484.041 c 6.516,6.256 9.839,14.503 9.839,24.743 0,10.367 -3.323,18.723 -9.839,25.108 -6.516,6.385 -15.152,9.568 -25.921,9.568 -10.77,0 -19.406,-3.183 -26.052,-9.568 -6.646,-6.385 -9.968,-14.741 -9.968,-25.108 0,-10.24 3.322,-18.487 9.827,-24.743 6.656,-6.233 15.423,-9.438 26.192,-9.438 10.77,10e-4 19.407,3.205 25.922,9.438 z m -25.92,7.057 c -10.499,0 -17.686,7.035 -17.686,17.686 0,10.758 7.187,18.203 17.686,18.203 10.498,0 17.544,-7.445 17.544,-18.203 0,-10.651 -7.046,-17.686 -17.544,-17.686 z"
         id="path20"
         inkscape:connector-curvature="0"
         style="fill:#414042" /><path
         d="m 691.557,508.913 c 0,9.828 -2.923,17.814 -8.638,23.919 -5.714,5.975 -13.16,9.048 -22.068,9.048 -7.576,0 -13.821,-0.281 -19.005,-0.801 v 30.695 H 623.37 v -93.295 c 15.813,-2.014 27.913,-3.074 36.279,-3.074 20.078,-10e-4 31.378,12.901 31.908,33.508 z m -17.945,0.519 c 0,-12.49 -5.585,-18.746 -16.884,-18.746 -4.254,0 -9.168,0.281 -14.882,0.801 v 33.898 c 4.653,0.671 9.968,1.061 16.083,1.061 9.167,0 15.683,-7.446 15.683,-17.014 z"
         id="path22"
         inkscape:connector-curvature="0"
         style="fill:#414042" /><path
         d="m 705.973,522.723 c 9.697,3.723 18.335,5.584 25.781,5.584 7.306,0 10.898,-1.58 10.898,-4.912 0,-2.924 -2.792,-4.395 -7.046,-5.326 -2.262,-0.648 -3.452,-0.779 -6.516,-1.32 l -3.452,-0.67 c -15.012,-2.793 -21.938,-8.377 -21.938,-19.136 0,-13.291 10.769,-21.257 27.912,-21.257 9.438,0 18.346,1.58 26.723,4.784 l -4.123,13.94 c -10.229,-2.923 -17.945,-4.373 -23.26,-4.373 -5.844,0 -9.167,2.121 -9.167,5.455 0,2.922 2.121,3.983 5.845,5.174 2.262,0.542 3.322,0.67 6.526,1.321 l 3.712,0.67 c 15.543,3.182 22.059,7.707 22.059,19.006 0,14.222 -11.159,21.408 -28.845,21.408 -9.838,0 -19.405,-1.862 -28.844,-5.585 z"
         id="path24"
         inkscape:connector-curvature="0"
         style="fill:#414042" /></g><g
       id="g55"><linearGradient
         id="SVGID_1_"
         gradientUnits="userSpaceOnUse"
         x1="356.91891"
         y1="555.78857"
         x2="308.43039"
         y2="424.17709"><stop
           offset="0"
           style="stop-color:#FFFFFF"
           id="stop28" /><stop
           offset="0.1371"
           style="stop-color:#FFFFFF;stop-opacity:0.8629"
           id="stop30" /><stop
           offset="1"
           style="stop-color:#FFFFFF;stop-opacity:0"
           id="stop32" /></linearGradient><path
         d="m 334.5,510.297 c -1.927,-2.033 -3.193,-4.09 -3.767,-6.146 -0.595,-1.992 -0.822,-3.723 -0.714,-5.195 0.119,-1.624 0.649,-3.355 1.569,-5.044 0.942,-1.731 2.013,-3.117 3.215,-4.135 l 30.045,-25.759 c -9.156,-6.104 -20.607,-8.789 -32.275,-6.537 -23.497,4.523 -38.855,27.253 -34.331,50.74 0,0 0.303,2.076 1.364,5.238 0.065,0.172 0.13,0.389 0.206,0.584 0.119,0.346 0.249,0.715 0.379,1.061 0.476,1.234 0.953,2.424 1.494,3.594 l 0.043,-0.045 c 0.411,0.867 0.996,1.797 1.515,2.707 12.36,-1.342 24.266,-3.508 35.479,-6.516 z"
         id="path35"
         inkscape:connector-curvature="0"
         style="fill:url(#SVGID_1_)" /><linearGradient
         id="SVGID_2_"
         gradientUnits="userSpaceOnUse"
         x1="374.37451"
         y1="549.34521"
         x2="325.8876"
         y2="417.7381"><stop
           offset="0"
           style="stop-color:#FFFFFF"
           id="stop37" /><stop
           offset="0.1371"
           style="stop-color:#FFFFFF;stop-opacity:0.8629"
           id="stop39" /><stop
           offset="1"
           style="stop-color:#FFFFFF;stop-opacity:0"
           id="stop41" /></linearGradient><path
         d="m 410.154,477.201 c -0.064,-0.151 -0.075,-0.325 -0.13,-0.498 l 13.659,-16.148 c 0.119,0.044 0.26,0.065 0.379,0.108 4.416,-6.731 7.587,-13.854 9.557,-21.235 -3.496,-1.84 -7.738,-2.1 -11.396,0.043 -3.313,1.948 -5.293,5.281 -5.726,8.831 l -20.478,3.918 C 385.434,439.99 370.888,431.332 354.35,428.215 l -7.771,-22.556 c 5.141,-3.441 6.83,-10.347 3.658,-15.78 -3.301,-5.628 -10.553,-7.533 -16.17,-4.243 -5.628,3.291 -7.543,10.542 -4.243,16.17 0.855,1.472 1.992,2.684 3.301,3.615 l -7.793,23.183 c -16.029,3.442 -30.078,12.144 -40.294,24.222 l -22.923,-4.286 c -0.108,-1.774 -0.584,-3.55 -1.537,-5.217 -3.29,-5.628 -10.542,-7.511 -16.17,-4.221 -5.628,3.29 -7.533,10.542 -4.243,16.148 3.009,5.151 9.33,7.165 14.676,4.935 l 16.083,18.399 c -2.078,6.775 -3.182,13.962 -3.182,21.431 0,7.988 1.342,15.65 3.723,22.837 1.277,0.021 2.522,0.129 3.81,0.129 5.682,0 11.278,-0.195 16.819,-0.563 -3.16,-6.84 -5.043,-14.373 -5.043,-22.404 0,-29.678 24.049,-53.748 53.726,-53.748 26.409,0 48.261,19.113 52.774,44.224 6.094,-4.133 11.668,-8.549 16.603,-13.289 z"
         id="path44"
         inkscape:connector-curvature="0"
         style="fill:url(#SVGID_2_)" /><linearGradient
         id="SVGID_3_"
         gradientUnits="userSpaceOnUse"
         x1="383.32129"
         y1="546.02881"
         x2="334.85889"
         y2="414.48849"><stop
           offset="0"
           style="stop-color:#FFFFFF"
           id="stop46" /><stop
           offset="0.1371"
           style="stop-color:#FFFFFF;stop-opacity:0.8629"
           id="stop48" /><stop
           offset="1"
           style="stop-color:#FFFFFF;stop-opacity:0"
           id="stop50" /></linearGradient><path
         d="m 375.574,474.214 -25.488,20.976 c -0.942,0.735 -1.818,1.493 -2.641,2.272 -0.649,0.628 -1.006,1.45 -1.082,2.555 -0.087,1.451 0.216,2.64 0.996,3.636 0.898,1.17 1.84,2.273 2.792,3.27 l 3.29,3.375 c 11.062,-3.83 21.235,-8.506 30.478,-13.809 -0.13,-1.537 -0.303,-3.096 -0.606,-4.676 -1.266,-6.603 -3.972,-12.555 -7.739,-17.599 z"
         id="path53"
         inkscape:connector-curvature="0"
         style="fill:url(#SVGID_3_)" /></g></g></svg>